<?xml version="1.0" standalone="no"?>
<!DOCTYPE svg PUBLIC "-//W3C//DTD SVG 20010904//EN"
 "http://www.w3.org/TR/2001/REC-SVG-20010904/DTD/svg10.dtd">
<svg version="1.0" xmlns="http://www.w3.org/2000/svg"
 width="391.000000pt" height="638.000000pt" viewBox="0 0 391.000000 638.000000"
 preserveAspectRatio="xMidYMid meet">
<metadata>
Created by potrace 1.16, written by Peter Selinger 2001-2019
</metadata>
<g transform="translate(0.000000,638.000000) scale(0.100000,-0.100000)"
fill="#000000" stroke="none">
<path d="M1460 6373 c-180 -8 -400 -33 -790 -88 -162 -23 -446 -80 -469 -94
-12 -8 -16 -103 -46 -1121 -31 -1064 -45 -1567 -60 -2060 -8 -278 -24 -818
-35 -1200 -11 -382 -24 -837 -30 -1010 -5 -173 -13 -422 -16 -552 l-7 -238
627 0 c619 0 626 0 626 20 0 19 7 20 154 20 l154 0 6 63 c4 48 66 1904 67
1992 0 41 -27 112 607 -1612 102 -280 182 -483 189 -483 7 0 69 22 138 50 69
27 130 50 136 50 5 0 15 -13 20 -30 6 -16 16 -30 21 -30 6 0 267 100 580 222
513 201 569 225 565 243 -2 11 -124 317 -270 680 -146 363 -378 940 -515 1282
l-250 621 92 52 c149 85 243 158 377 290 286 285 435 621 471 1062 44 547
-144 1054 -508 1373 -408 356 -1062 534 -1834 498z m420 -33 c862 -54 1447
-366 1724 -919 231 -458 232 -1079 3 -1551 -72 -148 -171 -285 -297 -410 -123
-123 -220 -197 -365 -279 -49 -28 -96 -54 -104 -59 -19 -11 -36 35 309 -822
542 -1347 710 -1768 710 -1778 0 -11 14 -6 -605 -247 -263 -103 -483 -184
-491 -181 -8 3 -14 12 -14 20 0 15 18 22 570 236 146 57 266 104 267 105 3 1
-112 288 -776 1940 -143 358 -261 655 -261 661 0 5 21 20 48 33 78 38 231 142
327 223 366 308 566 767 565 1301 -1 604 -252 1081 -727 1379 -304 191 -737
314 -1188 336 -101 5 -127 8 -95 13 74 10 225 10 400 -1z m-140 -56 c767 -84
1294 -393 1553 -910 51 -102 104 -259 134 -403 25 -115 27 -145 27 -356 1
-198 -2 -246 -22 -350 -91 -480 -358 -860 -782 -1113 -47 -28 -98 -56 -113
-63 -18 -8 -27 -19 -24 -28 4 -14 309 -774 858 -2140 99 -244 178 -446 176
-447 -6 -7 -1082 -424 -1092 -424 -7 0 -59 129 -118 287 -117 319 -868 2362
-894 2433 -23 64 -30 70 -79 70 -35 0 -44 -4 -44 -17 0 -10 -5 -146 -10 -303
-25 -701 -80 -2383 -80 -2429 l0 -51 -595 0 -595 0 0 43 c0 23 9 343 20 712
33 1106 49 1663 65 2210 8 286 22 747 30 1025 28 956 45 1526 50 1740 3 118 8
256 11 306 l6 92 91 21 c478 109 992 143 1427 95z m-341 -3492 c5 -9 54 -140
110 -291 l101 -275 0 -95 c0 -53 -9 -350 -20 -661 -10 -311 -24 -731 -30 -935
-6 -203 -13 -389 -16 -412 l-5 -43 -141 0 -141 0 7 178 c8 214 18 517 51 1522
34 1049 33 1030 56 1030 10 0 23 -8 28 -18z"/>
<path d="M1424 5153 c-25 -5 -25 0 -50 -801 -12 -369 -14 -536 -7 -543 24 -24
312 49 459 116 229 105 393 287 433 483 16 78 13 285 -4 361 -64 268 -284 394
-685 390 -69 -1 -134 -4 -146 -6z m286 -85 c1 -101 -31 -1131 -36 -1154 -3
-18 -20 -25 -111 -47 -60 -14 -123 -28 -142 -31 l-34 -6 7 217 c20 618 37
1066 42 1074 3 5 66 9 140 9 l134 0 0 -62z m143 36 c191 -43 307 -140 363
-304 16 -45 19 -84 19 -220 0 -149 -2 -171 -24 -230 -48 -133 -153 -257 -285
-337 -89 -54 -210 -105 -215 -90 -2 6 4 279 14 604 18 564 20 593 38 593 10 0
50 -7 90 -16z"/>
</g>
</svg>
